<svg width="600" height="230" viewBox="0 0 600 230" xmlns="http://www.w3.org/2000/svg">
  <defs>
    <linearGradient id="bgGradLang" x1="0" y1="0" x2="1" y2="1">
      <stop offset="0%" stop-color="#02030A"/>
      <stop offset="100%" stop-color="#050015"/>
    </linearGradient>

    <linearGradient id="barJS" x1="0" y1="0" x2="1" y2="0">
      <stop offset="0%" stop-color="#BF91F3"/>
      <stop offset="100%" stop-color="#7F3FFF"/>
    </linearGradient>

    <linearGradient id="barTS" x1="0" y1="0" x2="1" y2="0">
      <stop offset="0%" stop-color="#A56BFF"/>
      <stop offset="100%" stop-color="#4C2BAF"/>
    </linearGradient>

    <linearGradient id="barPY" x1="0" y1="0" x2="1" y2="0">
      <stop offset="0%" stop-color="#C4A5FF"/>
      <stop offset="100%" stop-color="#5B3BB5"/>
    </linearGradient>

    <linearGradient id="barOther" x1="0" y1="0" x2="1" y2="0">
      <stop offset="0%" stop-color="#5D4F8F"/>
      <stop offset="100%" stop-color="#2B2444"/>
    </linearGradient>

    <filter id="glowLang" x="-40%" y="-40%" width="180%" height="180%">
      <feGaussianBlur stdDeviation="5" result="b"/>
      <feMerge>
        <feMergeNode in="b"/>
        <feMergeNode in="SourceGraphic"/>
      </feMerge>
    </filter>
  </defs>

  <rect x="0" y="0" width="600" height="230" rx="22" ry="22" fill="url(#bgGradLang)"/>
  <rect x="12" y="12" width="576" height="206" rx="20" ry="20"
        fill="#05030A" stroke="#3B1D63" stroke-width="1.5"/>

  <rect x="12" y="12" width="576" height="4" fill="#BF91F3"/>

  <text x="30" y="48" fill="#E5E7EB"
        font-family="system-ui, -apple-system, BlinkMacSystemFont, sans-serif"
        font-size="18" font-weight="600">
    Languages Used • @walkercyber

  <text x="40" y="105" fill="#E5E7EB"
        font-family="system-ui, -apple-system, BlinkMacSystemFont, sans-serif"
        font-size="13">
    JavaScript
  </text>
  <rect x="150" y="94" width="360" height="16" rx="8" ry="8" fill="#120A24"/>
  <rect x="150" y="94" width="320" height="16" rx="8" ry="8" fill="url(#barJS)" filter="url(#glowLang)"/>
  <text x="525" y="107" fill="#E5E7EB"
        font-family="system-ui, -apple-system, BlinkMacSystemFont, sans-serif"
        font-size="12" text-anchor="end">
    40%
  </text>

  <text x="40" y="135" fill="#E5E7EB"
        font-family="system-ui, -apple-system, BlinkMacSystemFont, sans-serif"
        font-size="13">
    TypeScript
  </text>
  <rect x="150" y="124" width="360" height="16" rx="8" ry="8" fill="#120A24"/>
  <rect x="150" y="124" width="270" height="16" rx="8" ry="8" fill="url(#barTS)" filter="url(#glowLang)"/>
  <text x="525" y="137" fill="#E5E7EB"
        font-family="system-ui, -apple-system, BlinkMacSystemFont, sans-serif"
        font-size="12" text-anchor="end">
    30%
  </text>

  <text x="40" y="165" fill="#E5E7EB"
        font-family="system-ui, -apple-system, BlinkMacSystemFont, sans-serif"
        font-size="13">
    Python
  </text>
  <rect x="150" y="154" width="360" height="16" rx="8" ry="8" fill="#120A24"/>
  <rect x="150" y="154" width="190" height="16" rx="8" ry="8" fill="url(#barPY)" filter="url(#glowLang)"/>
  <text x="525" y="167" fill="#E5E7EB"
        font-family="system-ui, -apple-system, BlinkMacSystemFont, sans-serif"
        font-size="12" text-anchor="end">
    20%
  </text>

  <text x="40" y="195" fill="#E5E7EB"
        font-family="system-ui, -apple-system, BlinkMacSystemFont, sans-serif"
        font-size="13">
    Other
  </text>
  <rect x="150" y="184" width="360" height="16" rx="8" ry="8" fill="#120A24"/>
  <rect x="150" y="184" width="90" height="16" rx="8" ry="8" fill="url(#barOther)" filter="url(#glowLang)"/>
  <text x="525" y="197" fill="#E5E7EB"
        font-family="system-ui, -apple-system, BlinkMacSystemFont, sans-serif"
        font-size="12" text-anchor="end">
    10%
  </text>
</svg>
